<svg id="Layer_1" xmlns="http://www.w3.org/2000/svg" viewBox="48 30.2681 196.0445 40.7319"><style>.st0{fill:#289D2F;} .st1{fill:#009D3D;} .st2{fill:#767A76;}</style><path class="st0" d="M60.877 42.54l18.905-11.05c-.794-.458-1.62-.866-2.475-1.22l-16.362 9.567-7.337-4.287c-.54.59-1.046 1.21-1.516 1.856l8.785 5.137z"/><path class="st0" d="M60.877 47.98l22.98-13.436c-.614-.587-1.263-1.138-1.943-1.65l-21.035 12.3-.005-.002v.003l-10.03-5.865c-.4.695-.76 1.415-1.077 2.156l11.106 6.495z"/><path class="st0" d="M60.877 53.42l26.03-15.22c-.446-.674-.928-1.322-1.445-1.94L60.88 50.634l-.003-.003v.006L48.97 43.672c-.242.796-.437 1.612-.585 2.444l12.492 7.304z"/><path class="st0" d="M88.062 40.18L60.88 56.073l-.003-.003v.004L48.093 48.6c-.024.408-.036.82-.036 1.234C48.057 61.524 57.534 71 69.224 71S90.39 61.524 90.39 49.834c0-3.478-.84-6.76-2.328-9.655z"/><path class="st1" d="M106.048 35.115c-1.273 0-2.274.452-3.004 1.354-.73.9-1.094 2.145-1.094 3.734 0 1.662.35 2.92 1.053 3.773.7.852 1.716 1.278 3.045 1.278.575 0 1.132-.057 1.67-.17.537-.115 1.096-.262 1.677-.442v1.9c-1.063.403-2.268.604-3.616.604-1.987 0-3.51-.6-4.574-1.803-1.063-1.202-1.594-2.923-1.594-5.16 0-1.41.258-2.643.774-3.7.516-1.056 1.262-1.866 2.24-2.428.976-.564 2.122-.845 3.44-.845 1.384 0 2.663.29 3.837.87l-.797 1.847c-.458-.215-.94-.405-1.45-.57-.51-.163-1.047-.245-1.61-.245zm5.442 5.693c0-2.286.388-4.045 1.164-5.275.776-1.23 2.01-2.02 3.704-2.374 1.28-.26 2.754-.516 4.423-.76l.308 1.916c-2.027.31-3.51.55-4.45.724-.97.18-1.67.578-2.1 1.196s-.678 1.55-.746 2.79h.14c.35-.512.813-.91 1.38-1.19.57-.28 1.18-.423 1.828-.423 1.26 0 2.244.4 2.95 1.197.703.798 1.055 1.917 1.055 3.357 0 1.65-.428 2.926-1.284 3.83-.856.902-2.04 1.353-3.556 1.353-1.502 0-2.68-.557-3.532-1.67-.852-1.112-1.28-2.67-1.28-4.672zm4.96 4.562c1.62 0 2.43-1.063 2.43-3.19 0-2.052-.733-3.078-2.197-3.078-.402 0-.792.087-1.17.26s-.724.402-1.042.686-.56.578-.734.88c0 1.46.232 2.564.696 3.315s1.138 1.127 2.02 1.127zm11.674 1.78c-1.595 0-2.842-.465-3.74-1.395-.9-.93-1.35-2.212-1.35-3.843 0-1.676.417-2.992 1.25-3.95s1.982-1.437 3.44-1.437c1.355 0 2.424.41 3.21 1.233.784.822 1.176 1.953 1.176 3.394v1.177h-6.833c.03.992.3 1.76.807 2.292.507.534 1.22.8 2.142.8.605 0 1.17-.056 1.692-.17.522-.114 1.083-.305 1.683-.57v1.77c-.53.254-1.07.433-1.61.538-.545.106-1.166.16-1.864.16zm-.4-8.975c-.69 0-1.246.22-1.664.66-.417.438-.666 1.077-.746 1.918h4.655c-.016-.847-.22-1.488-.615-1.924-.396-.44-.94-.657-1.632-.657zm12.063 8.975c-1.298 0-2.306-.467-3.022-1.4h-.13c.086.865.13 1.39.13 1.576v4.2h-2.18V36.71h1.763c.05.192.15.65.305 1.373h.112c.68-1.04 1.7-1.558 3.06-1.558 1.28 0 2.276.463 2.99 1.39s1.07 2.23 1.07 3.904-.363 2.98-1.09 3.92c-.726.94-1.728 1.41-3.008 1.41zm-.528-8.845c-.87 0-1.5.253-1.9.76-.4.507-.597 1.317-.597 2.43v.324c0 1.246.198 2.15.593 2.71.396.56 1.042.84 1.938.84.754 0 1.335-.31 1.743-.93.407-.617.61-1.5.61-2.64 0-1.15-.202-2.02-.606-2.61-.404-.59-1-.886-1.784-.886zm6.562 2.503c0-2.286.387-4.045 1.163-5.275.776-1.23 2.01-2.02 3.704-2.374 1.28-.26 2.753-.516 4.422-.76l.306 1.916c-2.03.31-3.513.55-4.453.724-.97.18-1.67.578-2.1 1.196-.43.618-.678 1.55-.746 2.79h.14c.35-.512.812-.91 1.38-1.19.57-.28 1.18-.423 1.827-.423 1.26 0 2.243.4 2.948 1.197.704.798 1.056 1.917 1.056 3.357 0 1.65-.427 2.926-1.283 3.83-.856.902-2.04 1.353-3.556 1.353-1.5 0-2.68-.557-3.53-1.67-.854-1.112-1.28-2.67-1.28-4.672zm4.96 4.562c1.62 0 2.43-1.063 2.43-3.19 0-2.052-.733-3.078-2.198-3.078-.402 0-.792.087-1.17.26s-.723.402-1.042.686-.564.578-.737.88c0 1.46.232 2.564.696 3.315s1.138 1.127 2.02 1.127zm13.194 1.594l-.436-1.427h-.072c-.495.624-.992 1.05-1.493 1.275-.5.225-1.144.338-1.928.338-1.008 0-1.794-.272-2.36-.816-.566-.544-.848-1.313-.848-2.31 0-1.056.39-1.853 1.175-2.39.785-.538 1.98-.832 3.588-.88l1.77-.057v-.547c0-.655-.152-1.145-.458-1.47-.306-.324-.78-.487-1.423-.487-.525 0-1.03.078-1.51.232-.484.155-.947.337-1.392.547l-.703-1.557c.556-.29 1.164-.512 1.826-.663.66-.15 1.285-.227 1.873-.227 1.303 0 2.288.284 2.952.853.665.568.997 1.46.997 2.68v6.906h-1.557zm-3.245-1.483c.79 0 1.427-.22 1.906-.66.48-.442.718-1.062.718-1.86v-.89l-1.316.057c-1.028.037-1.774.21-2.24.514-.468.306-.7.775-.7 1.405 0 .458.135.81.407 1.062.272.25.68.375 1.224.375zm9.973-8.77v4.118h4.83V36.71h2.18v10.254h-2.18v-4.422h-4.83v4.422h-2.18V36.71h2.18zm16.036 0h2.39l-4.237 4.943 4.598 5.312h-2.502l-4.434-5.2v5.2h-2.178V36.71h2.178v4.98l4.18-4.98z"/><path class="st2" d="M109.45 62.135c0 2.72-1.742 4.08-5.228 4.08h-3.94V52.66h8.27v1.9h-6.054v3.607h1.613c3.56 0 5.34 1.323 5.34 3.968zm-6.95 2.215h1.594c1.063 0 1.842-.174 2.337-.522.495-.35.74-.914.74-1.693 0-.748-.25-1.287-.744-1.618-.498-.33-1.365-.496-2.6-.496H102.5v4.33zm11.503-8.39v5.257c0 .613-.05 1.512-.148 2.7L119 55.96h2.662v10.253h-2.096V61.05c0-.284.017-.745.05-1.38.035-.637.065-1.1.09-1.392l-5.127 7.936h-2.665V55.96H114zm12.027 4.098c.995 0 1.727-.11 2.197-.33.47-.218.705-.556.705-1.013 0-.836-.742-1.253-2.225-1.253-.99 0-2 .223-3.032.668l-.705-1.623c1.193-.488 2.51-.732 3.95-.732 1.273 0 2.262.234 2.967.7.704.467 1.057 1.136 1.057 2.007 0 1.15-.66 1.904-1.975 2.263v.074c.82.22 1.41.54 1.763.952.355.414.533.927.533 1.54 0 .94-.412 1.688-1.238 2.247-.826.56-1.977.84-3.454.84-1.614 0-2.846-.214-3.7-.64v-1.88c1.132.53 2.303.795 3.515.795.87 0 1.543-.123 2.016-.367.473-.246.71-.618.71-1.12 0-.512-.238-.89-.715-1.13-.475-.24-1.21-.36-2.205-.36h-1.252v-1.643h1.085zm9.772-4.098v4.117h4.83V55.96h2.18v10.254h-2.18v-4.422h-4.83v4.422h-2.18V55.96h2.18zm14.163 10.44c-1.595 0-2.842-.465-3.74-1.395-.9-.93-1.35-2.21-1.35-3.843 0-1.675.417-2.992 1.252-3.95s1.98-1.437 3.44-1.437c1.353 0 2.422.41 3.207 1.233.785.822 1.178 1.954 1.178 3.394v1.177h-6.833c.03.992.296 1.76.803 2.292.507.535 1.22.8 2.142.8.605 0 1.17-.055 1.692-.17.52-.114 1.082-.304 1.682-.57v1.77c-.533.255-1.07.433-1.615.54-.543.103-1.165.156-1.863.156zm-.4-8.975c-.69 0-1.246.22-1.663.66-.417.438-.666 1.078-.746 1.918h4.654c-.013-.847-.217-1.488-.612-1.924-.396-.44-.94-.657-1.632-.657zm10.777 8.975c-1.552 0-2.73-.452-3.537-1.358-.807-.906-1.21-2.205-1.21-3.9 0-1.723.422-3.05 1.265-3.976s2.063-1.39 3.658-1.39c1.08 0 2.055.2 2.92.602l-.658 1.752c-.92-.358-1.68-.538-2.28-.538-1.775 0-2.662 1.178-2.662 3.533 0 1.15.22 2.013.663 2.59.445.58 1.09.868 1.945.868.97 0 1.89-.242 2.754-.723v1.9c-.39.23-.806.393-1.248.49s-.977.15-1.607.15zm23.124-6.98c0 2.204-.552 3.92-1.655 5.143-1.1 1.225-2.662 1.836-4.684 1.836-2.045 0-3.617-.61-4.714-1.82-1.096-1.218-1.644-2.945-1.644-5.18s.55-3.958 1.654-5.157c1.102-1.2 2.677-1.8 4.723-1.8 2.015 0 3.573.61 4.673 1.828s1.65 2.934 1.65 5.146zm-10.347-.003c0 1.67.334 2.935 1.01 3.797.672.863 1.67 1.293 2.993 1.293 1.316 0 2.31-.425 2.98-1.28.67-.85 1.006-2.122 1.006-3.81 0-1.662-.33-2.923-.996-3.782-.665-.86-1.655-1.29-2.972-1.29-1.33 0-2.33.43-3.008 1.29-.677.86-1.016 2.12-1.016 3.782zm15.703-3.457v4.117h4.83V55.96h2.18v10.254h-2.18v-4.422h-4.83v4.422h-2.18V55.96h2.18zm18.552 10.254h-2.197v-8.548h-2.83c-.173 2.2-.406 3.92-.7 5.155-.293 1.24-.676 2.14-1.15 2.71-.472.57-1.085.85-1.84.85-.476 0-.874-.065-1.196-.2v-1.71c.23.088.458.13.686.13.632 0 1.128-.708 1.49-2.127.36-1.418.644-3.59.848-6.513h6.888v10.254zm8.698 0l-.436-1.427h-.074c-.494.625-.99 1.05-1.492 1.275-.5.226-1.143.338-1.93.338-1.006 0-1.792-.272-2.36-.815-.563-.544-.846-1.314-.846-2.31 0-1.057.393-1.853 1.177-2.392.787-.537 1.98-.83 3.59-.88l1.77-.056V59.4c0-.655-.152-1.145-.46-1.47-.304-.324-.78-.487-1.422-.487-.527 0-1.03.078-1.513.232-.482.155-.946.337-1.39.547l-.705-1.557c.556-.29 1.165-.512 1.826-.663.66-.15 1.285-.227 1.872-.227 1.304 0 2.288.284 2.953.852.665.57.998 1.462.998 2.68v6.907h-1.558zm-3.245-1.483c.79 0 1.425-.22 1.904-.66.48-.442.718-1.062.718-1.86v-.89l-1.317.057c-1.025.037-1.772.21-2.238.514-.467.307-.7.775-.7 1.405 0 .457.135.81.407 1.062.272.25.68.375 1.224.375zm9.844-8.77v5.258c0 .613-.05 1.512-.148 2.7l5.146-7.957h2.66v10.255h-2.095V61.05c0-.284.017-.745.05-1.38.035-.637.065-1.1.09-1.392l-5.128 7.936h-2.663V55.96h2.086zm2.717-1.25c-1.31 0-2.27-.237-2.878-.71-.61-.473-.947-1.262-1.015-2.37h1.975c.037.446.122.793.255 1.04s.324.425.575.533c.25.108.632.162 1.145.162.605 0 1.066-.134 1.38-.403.316-.267.508-.71.576-1.33h2.012c-.093 1.064-.467 1.843-1.122 2.338s-1.623.742-2.902.742zm10.23 1.25v4.118h4.83V55.96h2.177v10.254h-2.18v-4.422h-4.83v4.422h-2.178V55.96h2.18z"/></svg>